<svg xmlns="http://www.w3.org/2000/svg" viewBox="0 0 88.34 88.34"><defs><style>.cls-1{fill:#0f324d;}</style></defs><title>Fichier 4</title><g id="Calque_2" data-name="Calque 2"><g id="Calque_1-2" data-name="Calque 1"><path class="cls-1" d="M40.6,37.61V33.9c0-1,0-2.11,0-3.16s.36-1.38,1.26-1.39q4.38-.06,8.74,0c.91,0,1.25.45,1.26,1.39,0,2,0,4,0,6.05v.82h.76c2.19,0,4.39-.08,6.58,0,4.79.29,8.7,2.15,11,6.6a14,14,0,0,1,1.48,6.54c0,2.2,0,4.39,0,6.59,0,1.33-.3,1.63-1.61,1.63H62.61c-1.19,0-1.55-.36-1.56-1.57,0-1.64,0-3.27,0-4.91a8.18,8.18,0,0,0-.12-1.4A2,2,0,0,0,59,49.35c-2.3-.06-4.6,0-7,0v.72q0,3.6,0,7.19c0,1.1-.41,1.5-1.5,1.5H42.1c-1.05,0-1.38-.31-1.39-1.36,0-2.42,0-4.83,0-7.25v-.81c-.33,0-.61,0-.88,0H18.91c-2.05,0-2.25-.21-2.25-2.27,0-2.58,0-5.15,0-7.73,0-1.32.34-1.66,1.67-1.66H40.6Z"/><path class="cls-1" d="M44.17,88.34A44.17,44.17,0,1,1,88.34,44.17,44.22,44.22,0,0,1,44.17,88.34Zm0-81.22A37.05,37.05,0,1,0,81.22,44.17,37.09,37.09,0,0,0,44.17,7.12Z"/></g></g></svg>