<svg xmlns="http://www.w3.org/2000/svg" viewBox="0 0 88.34 88.34"><defs><style>.cls-1{fill:#0f324d;}</style></defs><title>Fichier 2</title><g id="Calque_2" data-name="Calque 2"><g id="Calque_1-2" data-name="Calque 1"><path class="cls-1" d="M17,52.94V35.41c0-.48.06-1,.11-1.43a44.84,44.84,0,0,1,.57-5c1.37-6.11,5.17-9.88,11.29-11.27A36.46,36.46,0,0,1,36.86,17q7.32-.06,14.66,0a36.76,36.76,0,0,1,8,.63A14,14,0,0,1,70.54,28a23.43,23.43,0,0,1,.78,6.56c0,6.87,0,13.74-.06,20.61a22.2,22.2,0,0,1-.61,4.72A13.71,13.71,0,0,1,62.06,70,21.1,21.1,0,0,1,54,71.32c-6.25,0-12.5,0-18.75,0a41.21,41.21,0,0,1-5.65-.43,14.13,14.13,0,0,1-7.24-3.29c-3.38-2.92-4.8-6.76-5.12-11.1C17.15,55.3,17.09,54.12,17,52.94Zm4.82-8.74h.1c0,2.25,0,4.5,0,6.75a41.46,41.46,0,0,0,.47,7.3,9.22,9.22,0,0,0,6.73,7.51,20.15,20.15,0,0,0,5.62.66q8.19.08,16.36,0a36.93,36.93,0,0,0,7-.46A9.12,9.12,0,0,0,65.8,59a29,29,0,0,0,.61-7c.06-4.19,0-8.39,0-12.59A51.49,51.49,0,0,0,66,30.45a9.14,9.14,0,0,0-7.09-7.83,24.38,24.38,0,0,0-6-.59c-5.8,0-11.61-.05-17.42,0a37.17,37.17,0,0,0-5.17.43,9,9,0,0,0-6.44,4.07,11.54,11.54,0,0,0-1.72,6C22,36.41,21.93,40.31,21.84,44.2Z"/><path class="cls-1" d="M44.21,30.22a14,14,0,1,1-14,14A14,14,0,0,1,44.21,30.22Zm-9,14a9,9,0,1,0,9-9A9,9,0,0,0,35.18,44.2Z"/><path class="cls-1" d="M55.48,58.74a3.22,3.22,0,0,1,3.27-3.25A3.26,3.26,0,0,1,62,58.76,3.3,3.3,0,0,1,58.73,62,3.26,3.26,0,0,1,55.48,58.74Z"/><path class="cls-1" d="M44.17,88.34A44.17,44.17,0,1,1,88.34,44.17,44.22,44.22,0,0,1,44.17,88.34Zm0-81.22A37.05,37.05,0,1,0,81.22,44.17,37.09,37.09,0,0,0,44.17,7.12Z"/></g></g></svg>