<svg xmlns="http://www.w3.org/2000/svg" viewBox="0 0 88.34 88.34"><defs><style>.cls-1{fill:#0f324d;}</style></defs><title>Fichier 3</title><g id="Calque_2" data-name="Calque 2"><g id="Calque_1-2" data-name="Calque 1"><path class="cls-1" d="M24.84,44.18c0-5.57,0-11.14,0-16.71A10.14,10.14,0,0,1,33,17.32a10.48,10.48,0,0,1,2.16-.21c5.9,0,11.8,0,17.7,0A10.24,10.24,0,0,1,63.5,27.58c0,2,0,3.92,0,5.87q0,13.57,0,27.14a10.23,10.23,0,0,1-7.22,10.15,10,10,0,0,1-3,.47c-6.1.05-12.2,0-18.3,0A10.18,10.18,0,0,1,24.84,61C24.83,55.4,24.84,49.79,24.84,44.18Zm19.28,8.43L52.38,38.5H35.86Z"/><path class="cls-1" d="M44.17,88.34A44.17,44.17,0,1,1,88.34,44.17,44.22,44.22,0,0,1,44.17,88.34Zm0-81.22A37.05,37.05,0,1,0,81.22,44.17,37.09,37.09,0,0,0,44.17,7.12Z"/></g></g></svg>